Coordinates
version=1
nRows=10
nColumns=40
inDegrees=yes

Units are S.I. units (second, meters, Newtons, ...)
Angles are in degrees.

endheader
time	pelvis_tilt	pelvis_list	pelvis_rotation	pelvis_tx	pelvis_ty	pelvis_tz	hip_flexion_r	hip_adduction_r	hip_rotation_r	knee_angle_r	knee_angle_r_beta	ankle_angle_r	subtalar_angle_r	mtp_angle_r	hip_flexion_l	hip_adduction_l	hip_rotation_l	knee_angle_l	knee_angle_l_beta	ankle_angle_l	subtalar_angle_l	mtp_angle_l	lumbar_extension	lumbar_bending	lumbar_rotation	arm_flex_r	arm_add_r	arm_rot_r	elbow_flex_r	pro_sup_r	wrist_flex_r	wrist_dev_r	arm_flex_l	arm_add_l	arm_rot_l	elbow_flex_l	pro_sup_l	wrist_flex_l	wrist_dev_l
      1.26000000	      4.44032565	     -5.02917226	     -0.61634036	      0.47044611	      0.90360789	      0.98030218	     -3.98565463	      7.36446966	    -16.32437161	    -17.95133796	     -0.31330995	      8.75143095	      5.81569149	     -2.66103143	     18.17011256	      7.11618530	      6.20189147	    -42.45278371	     -0.74094085	      3.23790630	      2.60379098	    -13.81012744	     -8.84215626	      7.22386594	      4.94251841	      7.35433739	    -11.80807815	     20.78132723	     12.65683585	     89.95437384	      0.00000000	      0.00000000	      3.30646462	      7.40663257	    -10.84722396	     32.76602390	     89.95437384	      0.00000000	      0.00000000
      1.27000000	      4.52617417	     -4.98675738	     -1.27245941	      0.48232056	      0.90319537	      0.98115107	     -5.28094804	      7.22461810	    -16.18578717	    -17.38047248	     -0.30334647	      8.95799391	      6.52197365	     -3.08581917	     18.51322337	      6.98085092	      6.93712066	    -39.22461055	     -0.68459860	      3.34684889	      2.10859173	    -13.56733302	     -8.97877237	      7.06375489	      5.46434590	      8.68683385	    -12.20403041	     20.62078337	     13.22006669	     89.95437384	      0.00000000	      0.00000000	      2.83761217	      7.19323500	    -10.75894852	     30.78757731	     89.95437384	      0.00000000	      0.00000000
      1.28000000	      4.57197387	     -4.87543086	     -1.95505516	      0.49416630	      0.90246810	      0.98195303	     -6.38312404	      6.93810764	    -16.06278376	    -17.10453889	     -0.29853052	      9.31084163	      7.26783852	     -3.55307071	     18.81108600	      6.79187846	      7.78650112	    -35.93285931	     -0.62714670	      2.93907718	      1.64945600	    -13.22405101	     -9.07827320	      6.83351015	      5.94826136	     10.03077029	    -12.55417774	     20.34607654	     13.81064402	     89.95437384	      0.00000000	      0.00000000	      2.31279061	      6.97991889	    -10.62910535	     28.83686155	     89.95437384	      0.00000000	      0.00000000
      1.29000000	      4.61367940	     -4.73351360	     -2.67415102	      0.50601515	      0.90144558	      0.98269067	     -7.40376901	      6.58383816	    -15.84786784	    -16.95512311	     -0.29592272	      9.60132969	      8.12951417	     -4.08657831	     19.02481025	      6.56516938	      8.56643777	    -32.51875986	     -0.56755943	      2.20549302	      1.17249106	    -12.81319171	     -9.16715441	      6.56782095	      6.39924570	     11.40284394	    -12.85969155	     20.02881893	     14.39353389	     89.95437384	      0.00000000	      0.00000000	      1.79648734	      6.84220392	    -10.71157557	     26.90569339	     89.95437384	      0.00000000	      0.00000000
      1.30000000	      4.14367670	     -4.89100430	     -3.21728814	      0.51725819	      0.89938368	      0.98338369	     -7.72605010	      6.66593436	    -15.46673133	    -16.97271005	     -0.29622967	      9.93719298	      8.35058875	     -4.25410610	     20.01540312	      6.62101096	      8.74704316	    -29.50268140	     -0.51491893	      1.68939380	      0.74617318	    -12.41010717	     -8.74212738	      6.68848721	      6.62627084	     12.83304964	    -13.12703708	     19.89000911	     14.87248427	     89.95437384	      0.00000000	      0.00000000	      1.28373158	      6.69630995	    -10.85615115	     24.92666570	     89.95437384	      0.00000000	      0.00000000
      1.31000000	      4.05675066	     -4.69465116	     -4.01255971	      0.52887898	      0.89776158	      0.98409066	     -8.37821513	      6.25110226	    -14.83077892	    -17.22492807	     -0.30063171	     10.48946597	      8.59218153	     -4.57145919	     20.23203675	      6.43403635	      9.77204561	    -26.06771258	     -0.45496741	      0.82305608	      0.25182875	    -11.92971101	     -8.71713289	      6.37773635	      7.08568519	     14.13614031	    -13.40809278	     19.59126545	     15.67258428	     89.95437384	      0.00000000	      0.00000000	      0.83467316	      6.51226121	    -10.90634839	     22.83141686	     89.95437384	      0.00000000	      0.00000000
      1.32000000	      4.24502868	     -4.48698985	     -4.84533955	      0.54073218	      0.89644143	      0.98494023	     -9.35243188	      5.72391005	    -14.48994651	    -17.45246750	     -0.30460302	     11.00811133	      9.09253284	     -5.17462383	     20.04457345	      6.34542934	     11.32903063	    -22.70708670	     -0.39631343	      0.25277291	     -0.40588303	    -11.59557983	     -9.00222429	      5.99807885	      7.53550745	     15.46347346	    -13.56793221	     19.00692955	     16.43565573	     89.95437384	      0.00000000	      0.00000000	      0.28312159	      6.36678058	    -10.67085070	     21.00959211	     89.95437384	      0.00000000	      0.00000000
      1.33000000	      4.05768663	     -4.47187259	     -5.54954239	      0.55217215	      0.89443552	      0.98566570	     -9.87498382	      5.50044471	    -14.00770647	    -17.69699144	     -0.30887077	     11.43287506	      9.25745694	     -5.78321886	     20.32288957	      6.44237149	     12.39659526	    -19.56487181	     -0.34147143	      0.05704174	     -1.09299135	    -11.33910280	     -8.91454021	      5.88115189	      7.80167517	     16.79357142	    -13.68467513	     18.53645899	     17.20561234	     89.95437384	      0.00000000	      0.00000000	     -0.27537457	      6.19837121	    -10.51558400	     19.11380537	     89.95437384	      0.00000000	      0.00000000
      1.34000000	      3.77614100	     -4.53178528	     -6.12368680	      0.56345184	      0.89222120	      0.98610822	    -10.26180910	      5.37233712	    -13.58137187	    -17.99134899	     -0.31400828	     11.78132400	      9.28097756	     -6.27352506	     20.75092932	      6.61311663	     13.19602578	    -16.68487061	     -0.29120593	     -0.18902042	     -1.76029869	    -11.22427792	     -8.74958930	      5.89901620	      7.96787594	     18.03632057	    -13.84125584	     18.10407866	     18.12221827	     89.95437384	      0.00000000	      0.00000000	     -0.78428222	      6.01527631	    -10.43680682	     17.23943778	     89.95437384	      0.00000000	      0.00000000
      1.35000000	      3.36726374	     -4.71472868	     -6.63294990	      0.57450365	      0.88979211	      0.98653661	    -10.49771728	      5.40438075	    -13.03134589	    -18.30688827	     -0.31951548	     11.98708794	      9.45619853	     -6.50806932	     21.45181401	      6.93605707	     13.83918890	    -14.33043701	     -0.25011331	     -0.18541601	     -2.34410329	    -11.23638732	     -8.47637974	      6.06176766	      7.97429906	     19.32727552	    -13.91018604	     17.85838060	     18.95146860	     89.95437384	      0.00000000	      0.00000000	     -1.32814123	      5.87937211	    -10.60242146	     15.45520936	     89.95437384	      0.00000000	      0.00000000
